<svg xmlns="http://www.w3.org/2000/svg" viewBox="0 0 280 300">
  <path fill="#000" d="M146.64,88.16c-.06-.31-.1-.64-.13-1a8.23,8.23,0,1,1,8.78,7.63,7.88,7.88,0,0,1-.84,0,.92.92,0,0,0-.46.21c-.46.73,1.19.59.07,3.77a2.37,2.37,0,0,1-.14.69c-.08,1.22-.55,4.84-.62,6.76.24.28.31.42.28,1.09-.11.92-.32,3.16-.65,4.59a2.44,2.44,0,0,1-1.2,1.77c-.57,2.54-.72,4.66-2.18,7.75a9.7,9.7,0,0,1-.79,4.13c0,3.46.19,4-2.14,9.44-.61,2.56,0,4.33.6,7s2.45,3.87,2.72,6.67c.63,6.59.48,11.07-.94,16.24l1.24,2.92c1.53.7,5.33,2.62,3.22,5.66,3,1.56,7.45,3.22,11.15,6.38a42,42,0,0,1,4.46,4.17c2.69.42,2.4.64,4.39,1.86a159.8,159.8,0,0,1,20.67,15.74c.93.54,1.31.94,2.07,1.33.12.23.15.28.13.34-.26.66-.25.68-.49,1.2a13.16,13.16,0,0,0,1.17.92c.3.09.3-.06.83-.18a4,4,0,0,0,1.83,1.12c.93-.23.77,0,1.55-.92.28-.29.75,0,.75,0a7.24,7.24,0,0,1,1.77-1.53,5.12,5.12,0,0,1,1.95-.44c.43,0,.35.44.31.58a13.9,13.9,0,0,0-2.08,1,17,17,0,0,0-2.25,3.05c2.53-.35,4.09.28,6.2,0a4.93,4.93,0,0,0,3.2-.87,14.15,14.15,0,0,1,2.2-1.26,2.75,2.75,0,0,1,2.86.44c.62.71,1,.71.05,1.71-.35.39-.85.82-1.48,1.45a51.24,51.24,0,0,1-4.18,3.79,25.31,25.31,0,0,1-4.48,2.84,28.28,28.28,0,0,0-4.36,3.5c-.28.25-1,.7-1.38.94-.87.57-1.15.09-1.72-1a13.82,13.82,0,0,1-.69-1.23c-.47-.91-.82-2-.68-1.94a9.38,9.38,0,0,1-2.89-3.43,9.37,9.37,0,0,1-2.7-2.57l-1.89-1.51c-2.16.45-2.66-.89-8.36-4.94a5.86,5.86,0,0,1-3.09-1.43c-2.58-2.06-8.75-6.72-9.79-7.26a19.11,19.11,0,0,1-3.29-1.79c-1.24-.23-1.91-.36-2.53-.53a16.31,16.31,0,0,0-2.8-.61,25.1,25.1,0,0,1-7.86-2.68c-1.22-.58-2.27-.87-3.32-1.32a42.63,42.63,0,0,0-5.92-2.24,19.39,19.39,0,0,1-4.9-1.78,6.64,6.64,0,0,0-1.15-.59,2.5,2.5,0,0,0-1.63.25c-1.9,1-3.68,1.84-5.33,2.73s-2.94,1.67-4.43,2.53-2.91,1.51-4.51,2.27c0,0-4.56,2.29-7,3.18a82.13,82.13,0,0,1-9.29,6.33c-1.33.64-3.93,2.28-5.12,2.65-.69.55-3.12,2.29-5,3.72-1.47,1.1-2.58,2-2.58,2-.86.77-.8,1.13-2.42.44-.46.37-.8.6-1.09.81-1.18.86-1.28.65-1.71.63-.82.71-.92.34-1.64,1.16-.47.72,0,.55-1,.9-.21.08-.3.34-.47.48-.79.65-.8,2.51-2.71,2.64-1.1.79-.82,1.74-1.66,1.7.05.82-1.5,2-1.77,2-2.44.84-2.61-1-5.53.38a6,6,0,0,1-1.66.79,5.07,5.07,0,0,1-3.79-.74,15.08,15.08,0,0,1-2.86-3.37c-.48-1.12-.2-1.83,1.28-2.89a2.72,2.72,0,0,1,1.76-.75c.52-.2.38.1,1.3-.23.53-.19.53-.05,1.6-.15a5.14,5.14,0,0,1,1-.37c.85-.28,1.68-.59,1.68-.59s.22-.22,1-.14c.69-.28,1.4-.7,1.76-.83-.09-1.09,0-1,.54-1.48s.74-.46,1.21-.12c.2-.12.29-.16.27-.32-.08-.57-.56-.84-.42-2.09a3.63,3.63,0,0,1-.46-1.5c.1-.41.2-.6.45-.73s.34,0,.48.21a3.83,3.83,0,0,1,.45,1.15c.09,1,.39,2.22,1.35,1.51.56-.57.67-2.1,1.83-1.77l.82.71a5.64,5.64,0,0,1,1.15-.92s-.65-.66-.08-1.17a13.21,13.21,0,0,0,1.71-1.53,46.69,46.69,0,0,1,6-5.74,56.58,56.58,0,0,1,14.25-8.4,6.23,6.23,0,0,1,4.92-2.73,37.49,37.49,0,0,1,10.4-10.65c1.11-2,1.59-1.8,3-2.2,1.15-.92,1.41-.92,1.92-1.88.5-2-1.15-7.29,3.07-7.56a19.16,19.16,0,0,1,1.67-2.16,17.82,17.82,0,0,1-1.14-4.26c0-.14-1.68-1.3-1.21-2.81a22.49,22.49,0,0,1-2.41-3.67,3.89,3.89,0,0,1-.54-.1c-.22,0-.48,0-.78,0a3,3,0,0,1-2.54,2.19c-2.09,4.45-2.82,6.33-8.72,10a14.92,14.92,0,0,0-3.08,5.5,4.2,4.2,0,0,0,0,2.73c-.31,1-.23,1.06-.23,1.06a1.52,1.52,0,0,0,.88.94c.71.19,1.42.16,1.37.95-.09,1-1.39.83-2,.72-2.36-.38-1.61-1.92-3.12-1.4-1.16.75-1.59,3-3.48,2.7-.25-.17-.17-.66,0-1,.27-.55.74-1,.46-1.21-1.23.38-3.69,1.2-3.69,1.2-1.15.31-2.42-.26-1.28-1a11.85,11.85,0,0,0,2.22-1.06s.48-.66-.44-.33a9.16,9.16,0,0,1-3.56.47,17.26,17.26,0,0,1-2.49-.47c-.28-.17-.54-.85.15-.85a22.54,22.54,0,0,0,4.75-.7c.82-.32,2.38-1.24,3.25-1.67a7.8,7.8,0,0,1,1.47-1.66c.87-1,1.61-1.59,2.38-2.61a46.56,46.56,0,0,1,4-7.82,36.19,36.19,0,0,1,4.39-5.63,9.32,9.32,0,0,1,2.81-5,37.44,37.44,0,0,1,2.08-4c.3-.51.59-1,.87-1.44.73-1.14,1.49-3.27,4.33-3.6a10.81,10.81,0,0,0,1.68-1.53c.72-.62.56-1.59,1.15-2.27-.91-.88-3.21-2.54-3.44-4.84a7.15,7.15,0,0,1,2.11-5.93,6.87,6.87,0,0,1,5.46-2.34A5.28,5.28,0,0,1,135,123.4c.8.81,1.1.29,1.44,1.24,2.2.59,2.07.33,2.06,2a2.67,2.67,0,0,1,.89,1.82c.74-1.53.89-1.82,2.86-3.5.46-1.37.78-2.72,1.19-4.09s.86-2.57,1.23-3.55c-.39-2.77.42-3.23,1.49-5.65-.19-.34-.15-.43-.07-1,.42-1.6,1.08-3.73,1.46-5.11a.79.79,0,0,1,.7-.59c.49-1.75,1.23-5,1.36-5.68a4.32,4.32,0,0,0-.21-3.45c-.13-.34-.07-.82-.28-1.19-.62-1.07-1.28-2.46-1.73-3.45a24.2,24.2,0,0,1-.75-3c-.39-1.22,0,0,0,0"/>
</svg>
